<?xml version="1.0" standalone="no"?>
<!DOCTYPE svg PUBLIC "-//W3C//DTD SVG 20010904//EN"
 "http://www.w3.org/TR/2001/REC-SVG-20010904/DTD/svg10.dtd">
<svg version="1.0" xmlns="http://www.w3.org/2000/svg"
 width="292.000000pt" height="292.000000pt" viewBox="0 0 292.000000 292.000000"
 preserveAspectRatio="xMidYMid meet">
<metadata>
Created by potrace 1.11, written by Peter Selinger 2001-2013
</metadata>
<g transform="translate(0.000000,292.000000) scale(0.100000,-0.100000)"
fill="#000000" stroke="none">
<path d="M1278 2869 c-183 -21 -370 -86 -538 -187 -187 -111 -347 -259 -458
-424 l-32 -47 36 -7 c23 -4 39 -3 43 5 5 7 56 14 138 18 l130 6 -3 -24 c-1
-13 -3 -27 -3 -30 -1 -6 -227 -4 -257 2 -5 1 -30 1 -56 0 l-48 -1 -46 -91
c-197 -394 -196 -858 4 -1255 65 -129 147 -245 167 -238 8 4 15 1 15 -5 0 -6
-5 -11 -11 -11 -5 0 -7 -5 -3 -11 4 -8 9 -7 14 2 9 14 52 20 60 8 3 -4 12 -4
20 1 11 7 3 11 -28 16 -38 6 -60 24 -29 24 9 0 9 2 -1 9 -10 6 -8 10 8 14 16
4 21 11 16 22 -5 14 1 16 42 11 l47 -5 -3 45 c-3 35 -8 44 -23 44 -15 0 -19 7
-19 40 0 22 -4 40 -10 40 -5 0 -10 18 -10 40 0 29 4 40 15 40 12 0 15 16 15
80 0 64 -3 80 -15 80 -11 0 -15 11 -15 40 0 30 -4 40 -16 40 -12 0 -15 6 -10
22 3 13 6 27 6 32 0 4 16 6 35 4 40 -5 41 -3 37 57 -5 59 -32 64 -32 5 0 -22
-4 -40 -10 -40 -5 0 -10 18 -10 40 0 44 -20 56 -21 13 0 -16 -3 -22 -6 -15 -2
6 -10 12 -17 12 -9 0 -11 25 -8 95 4 83 2 95 -12 95 -12 0 -16 9 -16 34 0 19
-3 41 -6 50 -4 10 -1 16 8 16 7 0 19 9 26 20 14 24 32 26 32 5 0 -12 15 -15
75 -15 64 0 75 -2 76 -17 1 -10 5 0 9 21 10 51 -1 92 -23 88 -11 -2 -17 4 -17
18 0 14 -7 20 -21 20 -30 0 -18 22 14 26 18 2 27 -2 27 -12 0 -8 5 -14 10 -14
6 0 10 -7 10 -15 0 -13 4 -14 22 -4 14 7 18 14 11 16 -10 4 -10 9 0 24 9 14 9
23 0 38 -6 10 -8 22 -4 27 10 12 30 82 46 167 23 119 31 151 43 172 6 11 18
53 28 93 17 75 34 100 104 152 18 14 40 32 47 40 57 63 93 92 129 106 40 15
43 15 85 -7 55 -27 126 -32 215 -13 87 18 136 18 179 0 18 -8 35 -12 38 -10 3
3 27 -9 55 -25 27 -17 55 -31 63 -31 8 0 36 -11 63 -25 27 -14 55 -25 63 -25
15 0 15 0 18 -66 1 -39 9 -63 34 -99 53 -79 98 -177 104 -230 3 -27 16 -81 29
-120 19 -59 23 -66 28 -45 4 14 10 40 14 58 5 17 12 32 16 32 4 0 13 18 20 40
7 22 16 40 20 40 4 0 12 12 18 26 7 14 17 22 22 19 6 -3 10 -2 10 4 0 5 -4 11
-10 13 -10 3 -20 160 -12 191 4 15 7 16 13 5 6 -9 9 -9 9 -1 0 8 9 9 29 3 16
-4 31 -6 34 -4 2 3 97 8 210 12 114 5 209 11 213 15 4 3 -12 28 -35 56 -31 37
-46 48 -61 44 -22 -6 -28 12 -7 20 7 3 -16 32 -58 71 -305 288 -734 432 -1147
385z m1182 -469 c0 -5 -15 -10 -32 -10 -18 0 -105 -3 -193 -6 -88 -4 -157 -3
-153 1 3 4 82 10 175 14 92 4 176 9 186 9 9 1 17 -2 17 -8z m-393 -16 c-3 -3
-12 -4 -19 -1 -8 3 -5 6 6 6 11 1 17 -2 13 -5z m-1504 -581 c-13 -2 -33 -2
-45 0 -13 2 -3 4 22 4 25 0 35 -2 23 -4z m24 -55 c-3 -7 -5 -2 -5 12 0 14 2
19 5 13 2 -7 2 -19 0 -25z m-67 -98 c0 -5 -4 -10 -10 -10 -5 0 -10 5 -10 10 0
6 5 10 10 10 6 0 10 -4 10 -10z m-140 -390 c0 -13 -7 -20 -20 -20 -13 0 -20 7
-20 20 0 13 7 20 20 20 13 0 20 -7 20 -20z m-20 -399 c0 -6 -4 -13 -10 -16 -5
-3 -10 1 -10 9 0 9 5 16 10 16 6 0 10 -4 10 -9z"/>
<path d="M1765 2370 c3 -5 8 -10 11 -10 2 0 4 5 4 10 0 6 -5 10 -11 10 -5 0
-7 -4 -4 -10z"/>
<path d="M869 2125 c-4 -3 -24 -6 -45 -7 -47 -1 -69 -11 -111 -51 -38 -36 -44
-76 -13 -84 14 -4 20 -14 20 -33 0 -33 27 -58 60 -55 40 4 84 17 92 29 4 6 9
4 14 -7 5 -13 18 -17 56 -17 42 0 51 3 55 20 6 23 34 23 41 1 3 -8 0 -11 -6
-7 -6 3 -13 2 -17 -4 -3 -5 1 -10 11 -10 13 0 14 -3 5 -13 -10 -13 -6 -27 9
-27 4 0 20 16 35 36 35 46 29 91 -15 117 -20 12 -30 26 -30 42 0 22 -23 38
-46 34 -28 -5 -45 3 -42 19 2 13 -5 18 -32 20 -20 2 -38 0 -41 -3z m16 -79
c33 -8 49 -14 35 -15 -18 -1 -21 -4 -12 -10 18 -11 -7 -21 -50 -21 -16 0 -46
-7 -65 -16 -25 -13 -37 -14 -46 -5 -8 8 -8 11 1 11 7 0 12 4 12 9 0 13 43 61
55 60 6 0 37 -6 70 -13z"/>
<path d="M1448 2115 c-3 -3 -16 -8 -28 -10 -36 -7 -42 -20 -20 -40 19 -17 22
-17 63 -1 23 9 50 16 60 16 9 0 17 5 17 10 0 6 -5 10 -11 10 -5 0 -7 5 -4 10
6 10 -67 15 -77 5z"/>
<path d="M1646 2082 c-2 -4 11 -12 30 -18 37 -12 46 -1 15 16 -23 12 -38 13
-45 2z"/>
<path d="M1340 2022 c-32 -16 -56 -62 -32 -62 5 0 13 -16 16 -35 7 -38 38 -65
73 -65 17 0 21 4 16 18 -4 9 -11 20 -17 24 -14 9 5 63 22 63 7 0 18 -11 25
-25 11 -21 19 -25 57 -23 24 1 47 8 52 15 6 10 10 10 16 0 12 -18 114 -13 107
6 -3 8 -5 15 -5 18 0 11 -65 34 -102 36 -24 0 -63 10 -88 22 -58 27 -97 30
-140 8z"/>
<path d="M2060 1933 c0 -28 3 -34 10 -23 13 20 13 60 0 60 -5 0 -10 -17 -10
-37z"/>
<path d="M984 1677 c-35 -20 -84 -83 -84 -109 0 -25 -29 -70 -63 -98 -18 -15
-18 -17 3 -53 12 -20 30 -37 39 -37 28 0 61 -30 82 -75 13 -27 30 -47 47 -53
41 -16 140 -24 147 -12 3 5 3 10 -2 11 -64 4 -82 7 -98 17 -19 10 -19 11 6 20
14 6 37 8 52 5 15 -3 27 -1 27 4 0 10 -12 16 -82 47 -21 10 -38 21 -38 26 0
16 62 26 115 20 54 -7 169 3 145 12 -16 7 -199 21 -290 24 -81 1 -120 12 -120
33 0 10 25 44 55 76 30 33 55 67 55 75 0 9 7 26 16 38 20 29 14 44 -12 29z"/>
<path d="M1410 1621 c0 -13 74 -104 102 -127 34 -27 41 -52 19 -64 -10 -5 -62
-12 -115 -16 -96 -7 -123 -19 -43 -19 36 0 42 -3 45 -23 3 -17 -2 -25 -17 -29
-12 -3 -21 -9 -21 -13 0 -11 95 16 130 37 24 14 34 15 48 6 15 -9 21 -7 30 8
26 41 14 65 -76 158 -85 88 -102 102 -102 82z"/>
<path d="M1045 1600 c4 -6 -7 -10 -24 -10 -36 0 -36 -1 -16 -40 13 -25 23 -30
84 -40 39 -6 75 -9 81 -5 18 11 -23 54 -58 61 -18 3 -37 15 -43 25 -5 11 -14
19 -20 19 -6 0 -7 -4 -4 -10z"/>
<path d="M1210 1568 c-35 -13 -22 -16 48 -13 88 4 86 4 78 13 -10 9 -101 9
-126 0z"/>
<path d="M590 1546 c0 -8 5 -18 10 -21 6 -3 10 3 10 14 0 12 -4 21 -10 21 -5
0 -10 -6 -10 -14z"/>
<path d="M2040 1506 c-6 -8 -11 -34 -10 -58 4 -95 0 -218 -8 -218 -4 0 -13 14
-20 30 -15 34 -59 51 -73 29 -5 -8 -9 -39 -9 -69 0 -79 -38 -148 -135 -245
-73 -73 -132 -113 -192 -130 -29 -8 -29 -2 1 27 37 36 61 78 44 78 -7 0 -22
-6 -33 -14 -21 -14 -105 -40 -167 -50 -30 -5 -41 -3 -58 14 -20 20 -49 26
-180 34 -72 5 -108 13 -130 30 -28 21 -60 36 -75 36 -8 0 -23 7 -32 15 -10 9
-36 31 -57 50 -21 19 -45 35 -52 35 -8 0 -14 4 -14 8 0 12 -57 83 -128 159
-12 13 -22 30 -22 38 0 8 -4 15 -9 15 -5 0 -11 8 -15 18 -43 124 -45 128 -45
95 -1 -18 3 -33 8 -33 5 0 7 -18 4 -40 -5 -35 -3 -40 15 -40 24 0 32 -18 32
-70 0 -36 20 -67 33 -53 4 3 7 1 7 -6 0 -7 5 -9 10 -6 6 3 10 0 10 -9 0 -8 6
-17 13 -19 7 -3 5 -6 -5 -6 -11 -1 -18 -9 -18 -21 0 -17 3 -19 19 -8 15 9 23
9 35 -1 9 -8 16 -20 16 -27 0 -8 5 -14 10 -14 6 0 10 -9 10 -20 0 -11 6 -20
13 -20 19 0 59 -49 51 -62 -4 -6 -1 -9 7 -6 21 7 38 -23 39 -68 0 -34 -7 -49
-35 -80 -34 -37 -35 -37 -50 -18 -14 18 -15 17 -4 -7 15 -35 -3 -68 -41 -75
-16 -4 -31 -12 -34 -20 -3 -7 -29 -25 -58 -40 -28 -14 -85 -48 -126 -75 -40
-27 -80 -49 -87 -49 -8 0 -27 -11 -42 -24 l-28 -24 30 -32 c17 -18 63 -59 104
-91 183 -149 375 -240 611 -290 86 -19 137 -23 280 -23 156 0 188 3 294 28
274 64 488 177 683 360 121 115 312 384 287 405 -12 10 -96 29 -164 37 -65 8
-72 13 -220 158 -125 123 -155 139 -268 145 -9 1 -11 38 -7 166 3 91 4 165 2
165 -3 0 -10 -7 -17 -14z m-495 -742 c-16 -14 -39 -33 -50 -43 -11 -10 -38
-31 -60 -47 -22 -16 -60 -45 -84 -64 -24 -19 -48 -35 -55 -35 -6 0 -11 -7 -11
-15 0 -9 -11 -16 -25 -18 -21 -2 -29 4 -43 33 l-17 35 25 1 c61 3 65 12 15 29
-22 7 -40 17 -40 22 0 5 5 6 11 2 6 -3 15 0 20 7 8 12 11 12 19 -1 6 -10 10
-11 10 -2 0 6 9 12 20 12 11 0 20 4 20 9 0 8 44 27 85 37 6 2 31 10 58 18 35
11 47 12 47 3 1 -7 5 -6 13 4 14 18 47 38 62 38 6 0 -3 -11 -20 -25z"/>
<path d="M1330 1320 c0 -5 5 -10 11 -10 5 0 7 5 4 10 -3 6 -8 10 -11 10 -2 0
-4 -4 -4 -10z"/>
<path d="M1160 1300 c0 -5 9 -10 20 -10 11 0 20 5 20 10 0 6 -9 10 -20 10 -11
0 -20 -4 -20 -10z"/>
<path d="M629 1278 c-2 -13 -4 -137 -4 -275 0 -162 -4 -253 -10 -253 -5 0 -2
-5 9 -11 13 -8 15 -13 6 -19 -9 -5 -9 -9 -1 -14 6 -4 15 3 20 17 6 14 13 27
18 29 4 3 2 3 -4 2 -17 -4 -18 83 -1 88 9 3 9 28 -1 106 -7 56 -11 154 -10
217 1 69 -2 120 -8 126 -7 7 -12 3 -14 -13z m21 -398 c0 -22 -4 -40 -10 -40
-5 0 -10 18 -10 40 0 22 5 40 10 40 6 0 10 -18 10 -40z"/>
<path d="M1198 1243 c7 -3 16 -2 19 1 4 3 -2 6 -13 5 -11 0 -14 -3 -6 -6z"/>
<path d="M591 983 c-1 -36 3 -63 9 -63 12 0 12 64 0 100 -6 19 -8 9 -9 -37z"/>
<path d="M820 1015 c0 -8 4 -15 10 -15 5 0 7 7 4 15 -4 8 -8 15 -10 15 -2 0
-4 -7 -4 -15z"/>
<path d="M495 990 c3 -5 12 -10 20 -10 8 0 17 5 20 10 4 6 -5 10 -20 10 -15 0
-24 -4 -20 -10z"/>
<path d="M496 932 c-8 -14 11 -35 28 -29 8 3 22 0 30 -8 21 -21 28 -19 24 8
-2 14 -9 21 -20 19 -9 -1 -19 2 -23 8 -7 12 -32 13 -39 2z"/>
<path d="M1380 914 c0 -8 5 -12 10 -9 6 4 8 11 5 16 -9 14 -15 11 -15 -7z"/>
<path d="M900 870 c0 -5 5 -10 10 -10 6 0 10 5 10 10 0 6 -4 10 -10 10 -5 0
-10 -4 -10 -10z"/>
<path d="M755 750 c-3 -5 -1 -10 4 -10 6 0 11 5 11 10 0 6 -2 10 -4 10 -3 0
-8 -4 -11 -10z"/>
<path d="M708 743 c7 -3 16 -2 19 1 4 3 -2 6 -13 5 -11 0 -14 -3 -6 -6z"/>
<path d="M660 719 c0 -5 5 -7 10 -4 6 3 10 8 10 11 0 2 -4 4 -10 4 -5 0 -10
-5 -10 -11z"/>
<path d="M691 709 c-13 -5 -21 -12 -18 -15 3 -3 18 1 34 10 31 17 21 20 -16 5z"/>
<path d="M625 680 c-3 -5 -2 -10 4 -10 5 0 13 5 16 10 3 6 2 10 -4 10 -5 0
-13 -4 -16 -10z"/>
<path d="M500 650 c-8 -5 -12 -11 -9 -14 2 -3 11 -1 19 4 8 5 12 11 9 14 -2 3
-11 1 -19 -4z"/>
<path d="M385 560 c-3 -5 -2 -10 4 -10 5 0 13 5 16 10 3 6 2 10 -4 10 -5 0
-13 -4 -16 -10z"/>
</g>
</svg>
